# xmcd CD database file
#
# Track frame offsets:
#	180
#	18430
#	31485
#	49793
#	68368
#	83631
#	101027
#	124015
#	140618
#	156053
#	170089
#	183282
#	197861
#
# Disc length: 2987 seconds
#
# Revision: 24
# Processed by: cddbd v1.5.2PL0 Copyright (c) Steve Scherf et al.
# Submitted via: CDex 1.51
#
DISCID=aa0ba90d
DTITLE=Alan Jackson - Drive
DYEAR=2002
DGENRE=Country
TTITLE0=Alan Jackson - Drive (For Daddy Gene)
TTITLE1=Alan Jackson - A Little Bluer Than That
TTITLE2=Alan Jackson - Bring On The Night
TTITLE3=Alan Jackson - Work In Progress
TTITLE4=Alan Jackson - The Sounds
TTITLE5=Alan Jackson with George Strait - Designated Drinker
TTITLE6=Alan Jackson - Where Were You (When The World Stopped Turning)
TTITLE7=Alan Jackson - That'd Be Alright
TTITLE8=Alan Jackson - Once In A Lifetime Love
TTITLE9=Alan Jackson - When Love Comes Around
TTITLE10=Alan Jackson - I Slipped And Fell In Love
TTITLE11=Alan Jackson - First Love
TTITLE12=Alan Jackson - Where Were You (When The World Stopped Turning) (live)
EXTD=YEAR: 2002
EXTT0=
EXTT1=
EXTT2=
EXTT3=
EXTT4=
EXTT5=w/ George Strait
EXTT6=studio version
EXTT7=
EXTT8=
EXTT9=
EXTT10=
EXTT11=
EXTT12=performed at the Country Music Awards
PLAYORDER=
